<?xml version="1.0" encoding="utf-8"?>
<!-- Generator: Adobe Illustrator 15.1.0, SVG Export Plug-In . SVG Version: 6.00 Build 0)  -->
<!DOCTYPE svg PUBLIC "-//W3C//DTD SVG 1.1//EN" "http://www.w3.org/Graphics/SVG/1.1/DTD/svg11.dtd">
<svg version="1.1" id="Layer_1" xmlns="http://www.w3.org/2000/svg" xmlns:xlink="http://www.w3.org/1999/xlink" x="0px" y="0px"
	 width="40px" height="40px" viewBox="0 0 40 40" enable-background="new 0 0 40 40" xml:space="preserve">
<path fill="#3EC7F4" d="M20.967,4.177h-1.933L3.555,20.485l1.658,1.934l2.073-1.244l4.285,14.648H28.43l4.42-14.509l2.49,0.965
	L36.445,20L20.967,4.177z M20.001,25.891c-0.77,0-1.394-0.625-1.394-1.395s0.624-1.395,1.394-1.395c0.771,0,1.394,0.625,1.394,1.395
	S20.771,25.891,20.001,25.891z M20.001,21.605c-2.568,0-4.65-2.083-4.65-4.65c0-2.568,2.082-4.65,4.65-4.65s4.649,2.082,4.649,4.65
	C24.65,19.523,22.569,21.605,20.001,21.605z"/>
</svg>
