<?xml version="1.0" encoding="utf-8"?>
<!-- Generator: Adobe Illustrator 15.1.0, SVG Export Plug-In . SVG Version: 6.00 Build 0)  -->
<!DOCTYPE svg PUBLIC "-//W3C//DTD SVG 1.1//EN" "http://www.w3.org/Graphics/SVG/1.1/DTD/svg11.dtd">
<svg version="1.1" id="Layer_1" xmlns="http://www.w3.org/2000/svg" xmlns:xlink="http://www.w3.org/1999/xlink" x="0px" y="0px"
	 width="40px" height="40px" viewBox="0 0 40 40" enable-background="new 0 0 40 40" xml:space="preserve">
<g>
	<path fill="#3EC7F4" d="M24.196,4.021c0,0-7.549-1.224-11.63,7.142s-2.856,5.917-6.733,10.202c-3.877,4.286,2.652,5.346,12.243,9.1
		c9.589,3.757,11.224,4.368,12.855,3.551c1.632-0.815,2.03-2.46,1.632-8.364c-0.252-3.759,3.875-7.999,2.438-14.469
		c-0.834-3.754-4.477-4.712-4.477-4.712s1.427-3.265-2.042-4.285C25.014,1.165,24.196,4.021,24.196,4.021z"/>
	<path fill="#3EC7F4" d="M16.914,32.825l8.702,3.682c0,0-2.526,2.343-5.614,1.227C16.914,36.619,16.914,32.825,16.914,32.825z"/>
</g>
</svg>
