<?xml version="1.0" encoding="utf-8"?>
<!-- Generator: Adobe Illustrator 15.1.0, SVG Export Plug-In . SVG Version: 6.00 Build 0)  -->
<!DOCTYPE svg PUBLIC "-//W3C//DTD SVG 1.1//EN" "http://www.w3.org/Graphics/SVG/1.1/DTD/svg11.dtd">
<svg version="1.1" id="Layer_1" xmlns="http://www.w3.org/2000/svg" xmlns:xlink="http://www.w3.org/1999/xlink" x="0px" y="0px"
	 width="40px" height="40px" viewBox="0 0 40 40" enable-background="new 0 0 40 40" xml:space="preserve">
<g>
	<path fill="#3EC7F4" d="M20.001,26.11c4.398,0,8.798-9.776,8.798-9.776s0.979-0.367,0.855-1.956
		c-0.121-1.589-1.345-1.711-1.345-1.711s1.345-9.043-8.309-9.043c-9.655,0-8.31,9.043-8.31,9.043s-1.222,0.122-1.345,1.711
		c-0.122,1.588,0.856,1.956,0.856,1.956S15.601,26.11,20.001,26.11z"/>
	<path fill="#3EC7F4" d="M20.001,36.376H3.258v-5.499c5.377-3.544,11.122-3.545,11.122-3.545s0.488,3.057,5.622,3.057
		c5.133,0,5.621-3.057,5.621-3.057s5.744,0.001,11.121,3.545v5.499H20.001z"/>
</g>
</svg>
